<svg width="17" height="21" viewBox="0 0 17 21" fill="none" xmlns="http://www.w3.org/2000/svg">
<path d="M2.08333 20.8333C1.51042 20.8333 1.01997 20.6293 0.611979 20.2214C0.203993 19.8134 0 19.3229 0 18.75V6.25C0 5.67708 0.203993 5.18663 0.611979 4.77865C1.01997 4.37066 1.51042 4.16667 2.08333 4.16667H4.16667C4.16667 3.02083 4.57465 2.03993 5.39062 1.22396C6.2066 0.407986 7.1875 0 8.33333 0C9.47917 0 10.4601 0.407986 11.276 1.22396C12.092 2.03993 12.5 3.02083 12.5 4.16667H14.5833C15.1562 4.16667 15.6467 4.37066 16.0547 4.77865C16.4627 5.18663 16.6667 5.67708 16.6667 6.25V18.75C16.6667 19.3229 16.4627 19.8134 16.0547 20.2214C15.6467 20.6293 15.1562 20.8333 14.5833 20.8333H2.08333ZM6.25 4.16667H10.4167C10.4167 3.59375 10.2127 3.1033 9.80469 2.69531C9.3967 2.28733 8.90625 2.08333 8.33333 2.08333C7.76042 2.08333 7.26997 2.28733 6.86198 2.69531C6.45399 3.1033 6.25 3.59375 6.25 4.16667ZM11.4583 9.375C11.7535 9.375 12.0009 9.27517 12.2005 9.07552C12.4002 8.87587 12.5 8.62847 12.5 8.33333V6.25H10.4167V8.33333C10.4167 8.62847 10.5165 8.87587 10.7161 9.07552C10.9158 9.27517 11.1632 9.375 11.4583 9.375ZM5.20833 9.375C5.50347 9.375 5.75087 9.27517 5.95052 9.07552C6.15017 8.87587 6.25 8.62847 6.25 8.33333V6.25H4.16667V8.33333C4.16667 8.62847 4.26649 8.87587 4.46615 9.07552C4.6658 9.27517 4.91319 9.375 5.20833 9.375Z" fill="#DDDDDD"/>
</svg>
