<svg width="14" height="13" viewBox="0 0 14 13" fill="none" xmlns="http://www.w3.org/2000/svg">
<path d="M6.09527 0.345482C6.24495 -0.115174 6.89665 -0.115172 7.04633 0.345483L8.25466 4.06433C8.32159 4.27034 8.51357 4.40982 8.73018 4.40982H12.6404C13.1248 4.40982 13.3262 5.02963 12.9343 5.31433L9.77086 7.6127C9.59562 7.74003 9.52229 7.96571 9.58923 8.17172L10.7976 11.8906C10.9472 12.3512 10.42 12.7343 10.0281 12.4496L6.86469 10.1512C6.68945 10.0239 6.45215 10.0239 6.27691 10.1512L3.11347 12.4496C2.72161 12.7343 2.19437 12.3512 2.34405 11.8906L3.55237 8.17172C3.61931 7.96571 3.54598 7.74003 3.37074 7.6127L0.207296 5.31433C-0.184561 5.02963 0.0168287 4.40982 0.50119 4.40982H4.41142C4.62803 4.40982 4.82001 4.27034 4.88695 4.06433L6.09527 0.345482Z" fill="#FFE600"/>
</svg>
